<svg version="1.1" xmlns="http://www.w3.org/2000/svg" viewBox="85 257 480 480">
<rect x="85" y="257" width="480" height="480" fill="#FFFFFF"/>
<path d="M0 0 C3.15381505 0.34100602 4.8069559 1.43399379 7.00512695 3.64868164 C7.56283279 4.20338638 8.12053864 4.75809113 8.69514465 5.3296051 C9.28687973 5.93368698 9.87861481 6.53776886 10.48828125 7.16015625 C11.10970505 7.78345322 11.73112885 8.40675018 12.37138367 9.04893494 C13.68689914 10.37117248 14.99881192 11.69700272 16.30737305 13.02612305 C18.28783825 15.03745389 20.27849677 17.03819394 22.27148438 19.03710938 C34.22933541 31.06956628 34.22933541 31.06956628 38.05128479 35.95002747 C39.99514774 38.16430287 39.99514774 38.16430287 42.90919495 39.82600403 C48.0242357 43.51981703 51.32362804 46.83287054 52.67552757 53.16317558 C53.65866208 62.38010617 53.41669187 71.64734166 53.21672726 80.90030384 C53.14121067 84.98796379 53.13462397 89.07575158 53.12042236 93.16400146 C53.08326829 100.88881285 52.98499987 108.61156256 52.86422849 116.33546996 C52.70443061 126.78433273 52.64012863 137.23376778 52.57020187 147.68354607 C52.45769321 164.12390543 52.21855355 180.5599162 52 197 C26.92 197 1.84 197 -24 197 C-24 175.55 -24 154.1 -24 132 C-29.33680265 136.66970232 -34.25057469 141.19877045 -39.1171875 146.27734375 C-41 148 -41 148 -43 148 C-43.2475 148.61875 -43.495 149.2375 -43.75 149.875 C-45.20628639 152.35068687 -46.37812506 152.95125002 -49 154 C-49 154.66 -49 155.32 -49 156 C-53.15212637 160.29442808 -58.041931 163.81812526 -62.87180138 167.30428123 C-76.36556811 177.26230141 -89.51641953 188.69292227 -92.37575722 205.92798805 C-94.12610935 221.08364015 -93.44968933 236.37301666 -92.72949219 251.57556152 C-92.39840493 259.48026973 -92.32224684 267.39100837 -92.20128632 275.30123138 C-91.99153951 287.21650178 -91.46765578 299.07962871 -91 311 C-116.41 311 -141.82 311 -168 311 C-168.68515158 274.78100658 -168.68515158 274.78100658 -168.83007812 259.52734375 C-168.93070697 249.02085256 -169.04856608 238.51668966 -169.2824707 228.01220703 C-169.45279867 220.35920594 -169.56179002 212.70810429 -169.59950441 205.05326033 C-169.62153058 201.00493908 -169.6726248 196.96204722 -169.79741096 192.91548157 C-170.58320769 166.40958624 -170.58320769 166.40958624 -164.36607361 158.61927795 C-160.95073457 155.10792956 -157.23626322 152.27325916 -153.17234039 149.55677223 C-149.55112699 146.96168884 -146.56575349 143.76880387 -143.49609375 140.55859375 C-142.31376311 139.3646379 -141.12976115 138.17233244 -139.94335938 136.98242188 C-138.77442699 135.80109048 -137.60580858 134.61944832 -136.4375 133.4375 C-134.06426482 131.03729989 -131.68743203 128.64073925 -129.30859375 126.24609375 C-128.79074814 125.7199498 -128.27290253 125.19380585 -127.73936462 124.65171814 C-124.97536598 121.86964388 -122.14295748 119.22880528 -119.17016602 116.67016602 C-114.55074639 112.67019128 -110.26508002 108.37289949 -105.96875 104.03125 C-105.13339722 103.1921106 -104.29804443 102.35297119 -103.43737793 101.48840332 C-100.78912914 98.828031 -98.14415594 96.16443987 -95.5 93.5 C-92.01337399 89.98662727 -88.52335074 86.47668029 -85.03125 82.96875 C-84.24455933 82.17376099 -83.45786865 81.37877197 -82.64733887 80.55969238 C-79.27536855 77.1729572 -75.89770185 73.86063686 -72.25976562 70.75976562 C-66.77985951 66.04057321 -61.75012922 60.86063855 -56.65731812 55.73248291 C-54.77503824 53.83728107 -52.88951382 51.94535947 -51.00317383 50.05419922 C-46.99927961 46.03895296 -42.99934194 42.01977987 -39 38 C-34.36055446 33.33684539 -29.71944259 28.67537445 -25.07406616 24.01812744 C-23.22868641 22.16632966 -21.38637706 20.31151551 -19.54418945 18.45654297 C-14.32996531 13.2198659 -9.12754595 8.04339079 -3.48168945 3.26513672 C-2.27169771 2.23198839 -1.1250501 1.1250501 0 0 Z " fill="#FA0361" transform="translate(311,271)"/>
<path d="M0 0 C23.43 0 46.86 0 71 0 C70.77763672 7.79044922 70.77763672 7.79044922 70.55078125 15.73828125 C70.49916959 19.07025356 70.45333998 22.40039355 70.42773438 25.73242188 C70.38672947 30.99897266 70.3268432 36.25955228 70.1394043 41.52319336 C68.67904123 64.51654996 68.67904123 64.51654996 78.72050476 84.19194031 C81.97314208 87.17123441 85.33219231 89.87470652 88.92367554 92.43344116 C91.41508893 94.31317901 93.17488936 96.48172785 95 99 C95.66 99.33 96.32 99.66 97 100 C97 128.38 97 156.76 97 186 C95.02 185.01 95.02 185.01 93 184 C91.04805863 183.15180264 89.08910886 182.31962813 87.125 181.5 C86.11695313 181.0771875 85.10890625 180.654375 84.0703125 180.21875 C83.05710937 179.8165625 82.04390625 179.414375 81 179 C80.11957031 178.62746094 79.23914063 178.25492188 78.33203125 177.87109375 C64.47434288 174.24827487 48.92303591 176.25822559 36 182 C34.76910687 182.53074063 33.53740585 183.05961125 32.30493164 183.58666992 C30.66899048 184.28626831 30.66899048 184.28626831 29 185 C29.02744293 184.37598297 29.05488586 183.75196594 29.0831604 183.10903931 C29.35439438 176.52067852 29.49354902 169.93824477 29.56152344 163.34472656 C29.60330449 160.89635698 29.67701628 158.44829019 29.78515625 156.00195312 C30.65545727 140.29271244 30.65545727 140.29271244 24.12792969 126.53808594 C20.43585166 122.63720317 16.42771106 119.22847863 12.22723389 115.89080811 C9.32864904 113.43005724 6.92382103 110.68665119 4.4960022 107.76968384 C3.0710742 105.98791929 3.0710742 105.98791929 1.42904758 104.65633488 C-0.39035774 102.54755661 -0.3708377 101.48591709 -0.36076355 98.72895813 C-0.36488754 97.85817627 -0.36901154 96.98739441 -0.3732605 96.09022522 C-0.36247467 95.13788498 -0.35168884 94.18554474 -0.34057617 93.2043457 C-0.34101425 92.19928986 -0.34145233 91.19423401 -0.34190369 90.15872192 C-0.33981075 86.83087861 -0.3164555 83.50353674 -0.29296875 80.17578125 C-0.2873746 77.87078629 -0.28310365 75.56578776 -0.28010559 73.26078796 C-0.26864261 67.18946512 -0.23916274 61.11835704 -0.20599365 55.04711914 C-0.16993339 47.76508777 -0.15613856 40.48298466 -0.13863373 33.20088959 C-0.10952648 22.13377695 -0.05204889 11.0671357 0 0 Z " fill="#FA0260" transform="translate(390,335)"/>
<path d="M0 0 C72.27 0 144.54 0 219 0 C215.67908278 3.32091722 212.87048976 5.52486272 209 8.0625 C193.34411467 18.71214293 180.79731606 31.9448132 176.546875 51.03515625 C175.62068662 56.9700739 176 63.02231874 176 69 C117.92 69 59.84 69 0 69 C0 46.23 0 23.46 0 0 Z " fill="#FB0161" transform="translate(143,609)"/>
<path d="M0 0 C25.08 0 50.16 0 76 0 C76 17.82 76 35.64 76 54 C50.92 54 25.84 54 0 54 C0 36.18 0 18.36 0 0 Z " fill="#FB0261" transform="translate(287,528)"/>
<path d="M0 0 C-0.81791016 0.51046875 -0.81791016 0.51046875 -1.65234375 1.03125 C-19.50422352 12.50527871 -31.91497629 30.26874951 -37 51 C-37.94416894 55.64048992 -38.79294081 60.29470272 -39.62939453 64.95556641 C-42.99157008 83.50290372 -48.03540011 94.47441527 -61.625 107.5 C-75.21563597 120.85852996 -91.65241122 138.8706263 -92.23046875 159.15625 C-92.22654113 160.60423218 -92.21210446 162.05222155 -92.1875 163.5 C-92.1865332 164.58087891 -92.1865332 164.58087891 -92.18554688 165.68359375 C-92.14869545 170.21222442 -91.73491751 174.53170151 -91 179 C-100.09149008 173.67815215 -105.45741561 166.09922579 -108.58984375 156.12109375 C-110.75652555 144.91625357 -108.9263007 134.04387993 -102.8125 124.53515625 C-94.86830036 113.42354943 -84.65957886 105.41070238 -73.125 98.3125 C-61.85564378 91.30191212 -55.56166592 81.68933608 -52 69 C-51.07779941 64.89325453 -50.29082487 60.76096675 -49.49536133 56.62817383 C-45.36919074 35.23655195 -38.31073322 18.70108415 -20.3359375 5.3984375 C-16.14875651 2.89173048 -11.64835971 1.4173687 -7 0 C-3.86650268 -1.04449911 -3.01031744 -0.93423645 0 0 Z " fill="#F50B62" transform="translate(443,525)"/>
<path d="M0 0 C5.65423761 0.62824862 9.61131041 3.58657476 14 7 C14 5.02 14 3.04 14 1 C15.66666667 2.66666667 17.33333333 4.33333333 19 6 C19.598125 6.556875 20.19625 7.11375 20.8125 7.6875 C22 9 22 9 22 11 C25.99996286 9.66667905 26.83782337 7.5042173 29 4 C29.495 5.485 29.495 5.485 30 7 C28.05047637 10.0742488 26.76059565 11.71698767 23.3125 13 C22.549375 13.33 21.78625 13.66 21 14 C20.10613836 16.54775306 20.10613836 16.54775306 20 19 C19.01 18.67 18.02 18.34 17 18 C16.62021953 16.67914585 16.29246251 15.34289038 16 14 C12.25580915 8.02266675 7.19147783 5.09573892 1 2 C0.01 4.97 -0.98 7.94 -2 11 C-2.66 9.68 -3.32 8.36 -4 7 C-3.34 6.67 -2.68 6.34 -2 6 C-1.62690101 4.34178227 -1.29299023 2.67422986 -1 1 C-0.67 0.67 -0.34 0.34 0 0 Z " fill="#FDE1F3" transform="translate(435,609)"/>
<path d="M0 0 C4.45913734 1.63559092 8.51084839 3.77864791 12.625 6.125 C13.29273438 6.47820313 13.96046875 6.83140625 14.6484375 7.1953125 C18.41737243 9.36621902 20.32073346 10.98813611 21.7890625 15.15234375 C21.96904785 15.82257568 22.1490332 16.49280762 22.33447266 17.18334961 C23.54970716 20.50050292 25.94815412 21.5327664 29 23 C30.60294922 23.07734375 30.60294922 23.07734375 32.23828125 23.15625 C37.49683038 24.33573766 39.86306279 27.19302988 43.4375 31.0625 C44.39172852 32.05733398 44.39172852 32.05733398 45.36523438 33.07226562 C46.92467612 34.70205813 48.46834939 36.34413568 50 38 C46.78485841 42.17209844 44.19054694 44.85995422 39.4375 47.3125 C38.04337891 48.04919922 38.04337891 48.04919922 36.62109375 48.80078125 C29.3841169 52.1118869 19.87327275 52.48770381 12.26171875 50.1640625 C4.83591264 46.34214502 -1.23449015 39.5652562 -4.33984375 31.80859375 C-6.76918867 21.47309672 -5.83291365 10.47173439 -1 1 C-0.67 0.67 -0.34 0.34 0 0 Z " fill="#F70864" transform="translate(367,670)"/>
<path d="M0 0 C7.83013214 6.04994825 13.71191279 16.80801811 15.66015625 26.515625 C15.73781709 27.95660931 15.76811992 29.40071129 15.7578125 30.84375 C15.75458984 31.64296875 15.75136719 32.4421875 15.74804688 33.265625 C15.73547852 34.503125 15.73547852 34.503125 15.72265625 35.765625 C15.71814453 36.60609375 15.71363281 37.4465625 15.70898438 38.3125 C15.69723586 40.38023901 15.67930147 42.44794124 15.66015625 44.515625 C12.02722286 43.6804791 8.99854038 42.31816303 5.66015625 40.640625 C4.11328125 39.87105469 4.11328125 39.87105469 2.53515625 39.0859375 C-3.85673742 35.59471297 -3.85673742 35.59471297 -5.17578125 32.6484375 C-5.35367188 31.98585938 -5.5315625 31.32328125 -5.71484375 30.640625 C-6.94234716 27.12608891 -8.37550557 24.75372982 -11.42260742 22.4375 C-13.8113015 21.28893145 -15.88175264 21.14660116 -18.515625 20.890625 C-25.27311092 19.75524208 -28.56677593 16.35252465 -33.02734375 11.390625 C-33.74083984 10.63652344 -34.45433594 9.88242187 -35.18945312 9.10546875 C-36.9287486 7.26111516 -38.64338342 5.39930081 -40.33984375 3.515625 C-37.84283429 0.85697876 -35.63252262 -1.09627671 -32.33984375 -2.671875 C-31.67984375 -2.99542969 -31.01984375 -3.31898438 -30.33984375 -3.65234375 C-19.99647994 -7.95534471 -9.18289414 -5.82554219 0 0 Z " fill="#F60A64" transform="translate(486.33984375,532.484375)"/>
<path d="M0 0 C3.98712321 1.83246572 7.58084504 4.23855775 11.25 6.625 C11.8996875 7.04523437 12.549375 7.46546875 13.21875 7.8984375 C14.81368881 8.93045673 16.40700669 9.96498028 18 11 C17.79503906 11.60328125 17.59007812 12.2065625 17.37890625 12.828125 C17.10949219 13.62734375 16.84007812 14.4265625 16.5625 15.25 C16.29566406 16.03890625 16.02882813 16.8278125 15.75390625 17.640625 C15.08045292 19.74821988 14.50849405 21.84753973 14 24 C9.72813475 22.47146065 6.00673137 20.28490519 2.1875 17.875 C1.2912793 17.31619141 1.2912793 17.31619141 0.37695312 16.74609375 C-1.08426251 15.8342952 -2.54244585 14.91764024 -4 14 C-3.00956295 9.16371695 -2.04301154 4.52381127 0 0 Z " fill="#F20F62" transform="translate(418,575)"/>
<path d="M0 0 C4.55202677 1.57251834 5.75054642 3.23609768 8.4375 7.1875 C9.62431726 10.74795177 9.53439832 13.62558337 9.5 17.375 C9.49097656 18.64730469 9.48195313 19.91960938 9.47265625 21.23046875 C9.46105469 22.20628906 9.44945312 23.18210937 9.4375 24.1875 C5.7405322 23.6243857 4.23148304 22.23119202 1.75 19.5 C-2.26960012 15.29872303 -6.61667759 12.20994703 -11.5625 9.1875 C-9.15030271 3.89878575 -6.06835474 0.31938709 0 0 Z " fill="#F50C62" transform="translate(466.5625,559.8125)"/>
<path d="M0 0 C4.05214179 1.74522938 7.30603961 4.4228157 10.75 7.125 C11.35199219 7.59292969 11.95398438 8.06085937 12.57421875 8.54296875 C14.05186616 9.69225007 15.52626005 10.84571235 17 12 C16.21258341 16.7990969 14.50483074 19.87914943 12 24 C5.87584657 20.15717678 -0.16865561 16.27631922 -6 12 C-4.68139111 7.38486888 -2.78644563 3.90102388 0 0 Z " fill="#F50D63" transform="translate(427,556)"/>
<path d="M0 0 C2.89852365 1.31307372 4.98277217 2.72684638 7.234375 4.96875 C8.09482422 5.82533203 8.09482422 5.82533203 8.97265625 6.69921875 C9.55917969 7.29347656 10.14570313 7.88773438 10.75 8.5 C11.35199219 9.09425781 11.95398438 9.68851563 12.57421875 10.30078125 C13.14269531 10.87183594 13.71117187 11.44289063 14.296875 12.03125 C14.81604492 12.55267578 15.33521484 13.07410156 15.87011719 13.61132812 C17 15 17 15 17 17 C15.34997172 18.35386936 13.6825613 19.68678142 12 21 C11.67 21.66 11.34 22.32 11 23 C7.21119031 22.42437585 5.32700195 20.7699377 2.5625 18.1875 C-0.54314766 15.33296907 -3.66176951 12.58443651 -7 10 C-5.33248852 6.05860922 -2.77289351 3.2107188 0 0 Z " fill="#F11063" transform="translate(439,540)"/>
<path d="M0 0 C6.94453537 3.19898736 12.93912286 7.36248444 17 14 C16.77598426 17.25731002 15.83341809 18.20259962 13.6875 20.8125 C11 23 11 23 9.0859375 22.8515625 C6.5366964 21.81086108 4.95434078 20.43167228 2.9375 18.5625 C0.66243606 16.47083853 -1.41507709 14.72328194 -4 13 C-3.71682074 11.39431334 -3.42312209 9.79047953 -3.125 8.1875 C-2.96257812 7.29417969 -2.80015625 6.40085937 -2.6328125 5.48046875 C-2 3 -2 3 0 0 Z " fill="#F01265" transform="translate(436,610)"/>
<path d="M0 0 C3.39465355 1.45810622 5.52251713 3.33766728 8.0625 6 C10.33653856 8.37442798 12.24521929 10.16347952 15 12 C13.22054913 16.04420651 10.60470327 19.46078487 8 23 C4.43235179 22.42380903 2.74840503 21.13030516 0.25 18.5625 C-0.36359375 17.94503906 -0.9771875 17.32757812 -1.609375 16.69140625 C-3 15 -3 15 -3 13 C-3.99 12.67 -4.98 12.34 -6 12 C-5.54300722 6.97307937 -3.00758252 3.85103739 0 0 Z " fill="#F31062" transform="translate(471,616)"/>
<path d="M0 0 C4.00878292 0.61448497 7.16292392 1.86920876 10.75 3.75 C11.71421875 4.23984375 12.6784375 4.7296875 13.671875 5.234375 C16 7 16 7 16.91796875 9.40234375 C17.00792665 12.25101073 16.55551221 14.15122727 15.5625 16.8125 C15.13130859 17.99779297 15.13130859 17.99779297 14.69140625 19.20703125 C14.46324219 19.79871094 14.23507812 20.39039063 14 21 C8.42933186 19.38743817 2.9058846 17.11352751 -2 14 C-3.21065165 10.36804504 -2.62784815 8.93468371 -1.5625 5.3125 C-1.27503906 4.31863281 -0.98757813 3.32476563 -0.69140625 2.30078125 C-0.46324219 1.54152344 -0.23507812 0.78226563 0 0 Z " fill="#EF1365" transform="translate(412,598)"/>
<path d="M0 0 C1.89709988 0.93493439 3.79262578 1.87306296 5.6875 2.8125 C6.74324219 3.33457031 7.79898437 3.85664062 8.88671875 4.39453125 C11.66776696 5.8286728 14.33904567 7.35603378 17 9 C16.85795259 10.58367747 16.71119847 12.16693318 16.5625 13.75 C16.48128906 14.63171875 16.40007812 15.5134375 16.31640625 16.421875 C16.03761535 18.69350452 15.61209423 20.79851823 15 23 C10.88473708 22.35826346 7.69611565 20.13013842 4.25 17.9375 C3.64800781 17.56044922 3.04601562 17.18339844 2.42578125 16.79492188 C0.94750857 15.86806837 -0.52666089 14.93467611 -2 14 C-1.85866501 12.22880197 -1.71176792 10.45804713 -1.5625 8.6875 C-1.48128906 7.70136719 -1.40007812 6.71523438 -1.31640625 5.69921875 C-1 3 -1 3 0 0 Z " fill="#F60B61" transform="translate(484,577)"/>
<path d="M0 0 C4.15151338 1.44202476 7.29978445 3.5010438 10.8125 6.125 C11.78832031 6.84945312 12.76414062 7.57390625 13.76953125 8.3203125 C14.50558594 8.87460937 15.24164063 9.42890625 16 10 C15.29120484 14.85834353 14.03597876 18.57395923 12 23 C7.65962225 22.50485982 4.91387625 19.68886128 1.75 16.9375 C1.19570313 16.46505859 0.64140625 15.99261719 0.0703125 15.50585938 C-1.291749 14.34341033 -2.64659956 13.17252145 -4 12 C-2.66666667 8 -1.33333333 4 0 0 Z " fill="#F11063" transform="translate(479,598)"/>
<path d="M0 0 C5.24569384 3.36262426 10.11528387 7.13564679 15 11 C13.52069807 14.96479572 11.76352943 17.77588233 9 21 C5.04093183 19.56691865 1.71281819 17.66858051 -1.8125 15.375 C-2.78832031 14.74335937 -3.76414062 14.11171875 -4.76953125 13.4609375 C-5.50558594 12.97882812 -6.24164063 12.49671875 -7 12 C-6.38801624 8.56049636 -5.07941153 6.48435515 -2.9375 3.75 C-2.38964844 3.04359375 -1.84179688 2.3371875 -1.27734375 1.609375 C-0.85582031 1.07828125 -0.43429687 0.5471875 0 0 Z " fill="#F40D63" transform="translate(379,652)"/>
<path d="M0 0 C3.78671666 1.54950705 6.06455913 3.88289637 8.8125 6.875 C9.62332031 7.73867188 10.43414062 8.60234375 11.26953125 9.4921875 C13 12 13 12 12.96875 14.11328125 C11.82010276 16.35036438 10.59078157 17.67005359 8.6875 19.3125 C7.79611328 20.11107422 7.79611328 20.11107422 6.88671875 20.92578125 C5 22 5 22 3.0390625 22.03125 C-0.08619699 20.45065899 -1.39874609 18.08087199 -3.3125 15.1875 C-4.03050781 14.12917969 -4.74851562 13.07085938 -5.48828125 11.98046875 C-7 9 -7 9 -6.921875 6.78515625 C-5.30710476 3.65824947 -2.76862533 2.12064919 0 0 Z " fill="#F10D61" transform="translate(458,632)"/>
<path d="M0 0 C3.71045247 1.57780923 6.29906384 3.90703248 9.25 6.625 C10.14203125 7.44226563 11.0340625 8.25953125 11.953125 9.1015625 C12.96632813 10.04128906 12.96632813 10.04128906 14 11 C12.28564986 14.55225704 10.22257977 17.74021634 8 21 C3.64352355 19.55049595 0.68242711 17.32252888 -2.8125 14.375 C-3.78832031 13.55773437 -4.76414062 12.74046875 -5.76953125 11.8984375 C-6.50558594 11.27195312 -7.24164063 10.64546875 -8 10 C-6.07712966 5.70621187 -3.37521131 3.22846299 0 0 Z " fill="#F10B62" transform="translate(392,637)"/>
<path d="M0 0 C4.46244147 1.11561037 5.94144274 2.47161098 9.25 5.5625 C10.14203125 6.38878906 11.0340625 7.21507812 11.953125 8.06640625 C12.62859375 8.70449219 13.3040625 9.34257813 14 10 C9.85714286 17.57142857 9.85714286 17.57142857 7 20 C3.8731209 18.61867539 1.80079608 17.02096237 -0.5625 14.5625 C-1.14128906 13.96566406 -1.72007812 13.36882813 -2.31640625 12.75390625 C-2.87199219 12.17511719 -3.42757813 11.59632813 -4 11 C-4.99 10.01 -5.98 9.02 -7 8 C-4.69 5.36 -2.38 2.72 0 0 Z " fill="#EF1163" transform="translate(416,683)"/>
<path d="M0 0 C3.66060821 0.58536753 5.54535164 2.083239 8.25 4.5625 C8.95640625 5.20316406 9.6628125 5.84382812 10.390625 6.50390625 C10.92171875 6.99761719 11.4528125 7.49132812 12 8 C11.10276826 12.70525017 8.77694856 16.06424266 5 19 C1.31791301 19.12481651 -0.7657135 18.71668248 -3.9375 16.875 C-5.71940693 13.73045836 -5.46663018 11.55805512 -5 8 C-3.5672637 5.15442652 -1.87213658 2.57418779 0 0 Z " fill="#F11266" transform="translate(399,668)"/>
<path d="M0 0 C5.40489519 1.52012677 8.98492628 5.27385218 13 9 C12.39305845 12.15330554 11.3583335 14.18888867 9.4375 16.75 C8.98246094 17.36359375 8.52742188 17.9771875 8.05859375 18.609375 C7.70925781 19.06828125 7.35992187 19.5271875 7 20 C2.30834891 17.02480663 -1.84703191 13.68606635 -6 10 C-4.6302836 6.00499382 -2.74277578 3.19990508 0 0 Z " fill="#EF1362" transform="translate(428,667)"/>
</svg>
