<svg version="1.1" xmlns="http://www.w3.org/2000/svg" viewBox="138 266 352 418">
<path d="M0 0 C3.15381505 0.34100602 4.8069559 1.43399379 7.00512695 3.64868164 C7.56283279 4.20338638 8.12053864 4.75809113 8.69514465 5.3296051 C9.28687973 5.93368698 9.87861481 6.53776886 10.48828125 7.16015625 C11.10970505 7.78345322 11.73112885 8.40675018 12.37138367 9.04893494 C13.68689914 10.37117248 14.99881192 11.69700272 16.30737305 13.02612305 C18.28783825 15.03745389 20.27849677 17.03819394 22.27148438 19.03710938 C34.22933541 31.06956628 34.22933541 31.06956628 38.05128479 35.95002747 C39.99514774 38.16430287 39.99514774 38.16430287 42.90919495 39.82600403 C48.0242357 43.51981703 51.32362804 46.83287054 52.67552757 53.16317558 C53.65866208 62.38010617 53.41669187 71.64734166 53.21672726 80.90030384 C53.14121067 84.98796379 53.13462397 89.07575158 53.12042236 93.16400146 C53.08326829 100.88881285 52.98499987 108.61156256 52.86422849 116.33546996 C52.70443061 126.78433273 52.64012863 137.23376778 52.57020187 147.68354607 C52.45769321 164.12390543 52.21855355 180.5599162 52 197 C26.92 197 1.84 197 -24 197 C-24 175.55 -24 154.1 -24 132 C-29.33680265 136.66970232 -34.25057469 141.19877045 -39.1171875 146.27734375 C-41 148 -41 148 -43 148 C-43.2475 148.61875 -43.495 149.2375 -43.75 149.875 C-45.20628639 152.35068687 -46.37812506 152.95125002 -49 154 C-49 154.66 -49 155.32 -49 156 C-53.15212637 160.29442808 -58.041931 163.81812526 -62.87180138 167.30428123 C-76.36556811 177.26230141 -89.51641953 188.69292227 -92.37575722 205.92798805 C-94.12610935 221.08364015 -93.44968933 236.37301666 -92.72949219 251.57556152 C-92.39840493 259.48026973 -92.32224684 267.39100837 -92.20128632 275.30123138 C-91.99153951 287.21650178 -91.46765578 299.07962871 -91 311 C-116.41 311 -141.82 311 -168 311 C-168.68515158 274.78100658 -168.68515158 274.78100658 -168.83007812 259.52734375 C-168.93070697 249.02085256 -169.04856608 238.51668966 -169.2824707 228.01220703 C-169.45279867 220.35920594 -169.56179002 212.70810429 -169.59950441 205.05326033 C-169.62153058 201.00493908 -169.6726248 196.96204722 -169.79741096 192.91548157 C-170.58320769 166.40958624 -170.58320769 166.40958624 -164.36607361 158.61927795 C-160.95073457 155.10792956 -157.23626322 152.27325916 -153.17234039 149.55677223 C-149.55112699 146.96168884 -146.56575349 143.76880387 -143.49609375 140.55859375 C-142.31376311 139.3646379 -141.12976115 138.17233244 -139.94335938 136.98242188 C-138.77442699 135.80109048 -137.60580858 134.61944832 -136.4375 133.4375 C-134.06426482 131.03729989 -131.68743203 128.64073925 -129.30859375 126.24609375 C-128.79074814 125.7199498 -128.27290253 125.19380585 -127.73936462 124.65171814 C-124.97536598 121.86964388 -122.14295748 119.22880528 -119.17016602 116.67016602 C-114.55074639 112.67019128 -110.26508002 108.37289949 -105.96875 104.03125 C-105.13339722 103.1921106 -104.29804443 102.35297119 -103.43737793 101.48840332 C-100.78912914 98.828031 -98.14415594 96.16443987 -95.5 93.5 C-92.01337399 89.98662727 -88.52335074 86.47668029 -85.03125 82.96875 C-84.24455933 82.17376099 -83.45786865 81.37877197 -82.64733887 80.55969238 C-79.27536855 77.1729572 -75.89770185 73.86063686 -72.25976562 70.75976562 C-66.77985951 66.04057321 -61.75012922 60.86063855 -56.65731812 55.73248291 C-54.77503824 53.83728107 -52.88951382 51.94535947 -51.00317383 50.05419922 C-46.99927961 46.03895296 -42.99934194 42.01977987 -39 38 C-34.36055446 33.33684539 -29.71944259 28.67537445 -25.07406616 24.01812744 C-23.22868641 22.16632966 -21.38637706 20.31151551 -19.54418945 18.45654297 C-14.32996531 13.2198659 -9.12754595 8.04339079 -3.48168945 3.26513672 C-2.27169771 2.23198839 -1.1250501 1.1250501 0 0 Z " fill="#FA0361" transform="translate(311,271)"/>
<path d="M0 0 C23.43 0 46.86 0 71 0 C70.77763672 7.79044922 70.77763672 7.79044922 70.55078125 15.73828125 C70.49916959 19.07025356 70.45333998 22.40039355 70.42773438 25.73242188 C70.38672947 30.99897266 70.3268432 36.25955228 70.1394043 41.52319336 C68.67904123 64.51654996 68.67904123 64.51654996 78.72050476 84.19194031 C81.97314208 87.17123441 85.33219231 89.87470652 88.92367554 92.43344116 C91.41508893 94.31317901 93.17488936 96.48172785 95 99 C95.66 99.33 96.32 99.66 97 100 C97 128.38 97 156.76 97 186 C95.02 185.01 95.02 185.01 93 184 C91.04805863 183.15180264 89.08910886 182.31962813 87.125 181.5 C86.11695313 181.0771875 85.10890625 180.654375 84.0703125 180.21875 C83.05710937 179.8165625 82.04390625 179.414375 81 179 C80.11957031 178.62746094 79.23914063 178.25492188 78.33203125 177.87109375 C64.47434288 174.24827487 48.92303591 176.25822559 36 182 C34.76910687 182.53074063 33.53740585 183.05961125 32.30493164 183.58666992 C30.66899048 184.28626831 30.66899048 184.28626831 29 185 C29.02744293 184.37598297 29.05488586 183.75196594 29.0831604 183.10903931 C29.35439438 176.52067852 29.49354902 169.93824477 29.56152344 163.34472656 C29.60330449 160.89635698 29.67701628 158.44829019 29.78515625 156.00195312 C30.65545727 140.29271244 30.65545727 140.29271244 24.12792969 126.53808594 C20.43585166 122.63720317 16.42771106 119.22847863 12.22723389 115.89080811 C9.32864904 113.43005724 6.92382103 110.68665119 4.4960022 107.76968384 C3.0710742 105.98791929 3.0710742 105.98791929 1.42904758 104.65633488 C-0.39035774 102.54755661 -0.3708377 101.48591709 -0.36076355 98.72895813 C-0.36488754 97.85817627 -0.36901154 96.98739441 -0.3732605 96.09022522 C-0.36247467 95.13788498 -0.35168884 94.18554474 -0.34057617 93.2043457 C-0.34101425 92.19928986 -0.34145233 91.19423401 -0.34190369 90.15872192 C-0.33981075 86.83087861 -0.3164555 83.50353674 -0.29296875 80.17578125 C-0.2873746 77.87078629 -0.28310365 75.56578776 -0.28010559 73.26078796 C-0.26864261 67.18946512 -0.23916274 61.11835704 -0.20599365 55.04711914 C-0.16993339 47.76508777 -0.15613856 40.48298466 -0.13863373 33.20088959 C-0.10952648 22.13377695 -0.05204889 11.0671357 0 0 Z " fill="#FA0260" transform="translate(390,335)"/>
<path d="M0 0 C72.27 0 144.54 0 219 0 C215.67908278 3.32091722 212.87048976 5.52486272 209 8.0625 C193.34411467 18.71214293 180.79731606 31.9448132 176.546875 51.03515625 C175.62068662 56.9700739 176 63.02231874 176 69 C117.92 69 59.84 69 0 69 C0 46.23 0 23.46 0 0 Z " fill="#FB0161" transform="translate(143,609)"/>
<path d="M0 0 C25.08 0 50.16 0 76 0 C76 17.82 76 35.64 76 54 C50.92 54 25.84 54 0 54 C0 36.18 0 18.36 0 0 Z " fill="#FB0261" transform="translate(287,528)"/>
</svg>
