<svg version="1.1" xmlns="http://www.w3.org/2000/svg" viewBox="120 255 1360 495">
<path d="M0 0 C3.15381505 0.34100602 4.8069559 1.43399379 7.00512695 3.64868164 C7.56283279 4.20338638 8.12053864 4.75809113 8.69514465 5.3296051 C9.28687973 5.93368698 9.87861481 6.53776886 10.48828125 7.16015625 C11.10970505 7.78345322 11.73112885 8.40675018 12.37138367 9.04893494 C13.68689914 10.37117248 14.99881192 11.69700272 16.30737305 13.02612305 C18.28783825 15.03745389 20.27849677 17.03819394 22.27148438 19.03710938 C34.22933541 31.06956628 34.22933541 31.06956628 38.05128479 35.95002747 C39.99514774 38.16430287 39.99514774 38.16430287 42.90919495 39.82600403 C48.0242357 43.51981703 51.32362804 46.83287054 52.67552757 53.16317558 C53.65866208 62.38010617 53.41669187 71.64734166 53.21672726 80.90030384 C53.14121067 84.98796379 53.13462397 89.07575158 53.12042236 93.16400146 C53.08326829 100.88881285 52.98499987 108.61156256 52.86422849 116.33546996 C52.70443061 126.78433273 52.64012863 137.23376778 52.57020187 147.68354607 C52.45769321 164.12390543 52.21855355 180.5599162 52 197 C26.92 197 1.84 197 -24 197 C-24 175.55 -24 154.1 -24 132 C-29.33680265 136.66970232 -34.25057469 141.19877045 -39.1171875 146.27734375 C-41 148 -41 148 -43 148 C-43.2475 148.61875 -43.495 149.2375 -43.75 149.875 C-45.20628639 152.35068687 -46.37812506 152.95125002 -49 154 C-49 154.66 -49 155.32 -49 156 C-53.15212637 160.29442808 -58.041931 163.81812526 -62.87180138 167.30428123 C-76.36556811 177.26230141 -89.51641953 188.69292227 -92.37575722 205.92798805 C-94.12610935 221.08364015 -93.44968933 236.37301666 -92.72949219 251.57556152 C-92.39840493 259.48026973 -92.32224684 267.39100837 -92.20128632 275.30123138 C-91.99153951 287.21650178 -91.46765578 299.07962871 -91 311 C-116.41 311 -141.82 311 -168 311 C-168.68515158 274.78100658 -168.68515158 274.78100658 -168.83007812 259.52734375 C-168.93070697 249.02085256 -169.04856608 238.51668966 -169.2824707 228.01220703 C-169.45279867 220.35920594 -169.56179002 212.70810429 -169.59950441 205.05326033 C-169.62153058 201.00493908 -169.6726248 196.96204722 -169.79741096 192.91548157 C-170.58320769 166.40958624 -170.58320769 166.40958624 -164.36607361 158.61927795 C-160.95073457 155.10792956 -157.23626322 152.27325916 -153.17234039 149.55677223 C-149.55112699 146.96168884 -146.56575349 143.76880387 -143.49609375 140.55859375 C-142.31376311 139.3646379 -141.12976115 138.17233244 -139.94335938 136.98242188 C-138.77442699 135.80109048 -137.60580858 134.61944832 -136.4375 133.4375 C-134.06426482 131.03729989 -131.68743203 128.64073925 -129.30859375 126.24609375 C-128.79074814 125.7199498 -128.27290253 125.19380585 -127.73936462 124.65171814 C-124.97536598 121.86964388 -122.14295748 119.22880528 -119.17016602 116.67016602 C-114.55074639 112.67019128 -110.26508002 108.37289949 -105.96875 104.03125 C-105.13339722 103.1921106 -104.29804443 102.35297119 -103.43737793 101.48840332 C-100.78912914 98.828031 -98.14415594 96.16443987 -95.5 93.5 C-92.01337399 89.98662727 -88.52335074 86.47668029 -85.03125 82.96875 C-84.24455933 82.17376099 -83.45786865 81.37877197 -82.64733887 80.55969238 C-79.27536855 77.1729572 -75.89770185 73.86063686 -72.25976562 70.75976562 C-66.77985951 66.04057321 -61.75012922 60.86063855 -56.65731812 55.73248291 C-54.77503824 53.83728107 -52.88951382 51.94535947 -51.00317383 50.05419922 C-46.99927961 46.03895296 -42.99934194 42.01977987 -39 38 C-34.36055446 33.33684539 -29.71944259 28.67537445 -25.07406616 24.01812744 C-23.22868641 22.16632966 -21.38637706 20.31151551 -19.54418945 18.45654297 C-14.32996531 13.2198659 -9.12754595 8.04339079 -3.48168945 3.26513672 C-2.27169771 2.23198839 -1.1250501 1.1250501 0 0 Z " fill="#FA0361" transform="translate(311,271)"/>
<path d="M0 0 C23.43 0 46.86 0 71 0 C70.77763672 7.79044922 70.77763672 7.79044922 70.55078125 15.73828125 C70.49916959 19.07025356 70.45333998 22.40039355 70.42773438 25.73242188 C70.38672947 30.99897266 70.3268432 36.25955228 70.1394043 41.52319336 C68.67904123 64.51654996 68.67904123 64.51654996 78.72050476 84.19194031 C81.97314208 87.17123441 85.33219231 89.87470652 88.92367554 92.43344116 C91.41508893 94.31317901 93.17488936 96.48172785 95 99 C95.66 99.33 96.32 99.66 97 100 C97 128.38 97 156.76 97 186 C95.02 185.01 95.02 185.01 93 184 C91.04805863 183.15180264 89.08910886 182.31962813 87.125 181.5 C86.11695313 181.0771875 85.10890625 180.654375 84.0703125 180.21875 C83.05710937 179.8165625 82.04390625 179.414375 81 179 C80.11957031 178.62746094 79.23914063 178.25492188 78.33203125 177.87109375 C64.47434288 174.24827487 48.92303591 176.25822559 36 182 C34.76910687 182.53074063 33.53740585 183.05961125 32.30493164 183.58666992 C30.66899048 184.28626831 30.66899048 184.28626831 29 185 C29.02744293 184.37598297 29.05488586 183.75196594 29.0831604 183.10903931 C29.35439438 176.52067852 29.49354902 169.93824477 29.56152344 163.34472656 C29.60330449 160.89635698 29.67701628 158.44829019 29.78515625 156.00195312 C30.65545727 140.29271244 30.65545727 140.29271244 24.12792969 126.53808594 C20.43585166 122.63720317 16.42771106 119.22847863 12.22723389 115.89080811 C9.32864904 113.43005724 6.92382103 110.68665119 4.4960022 107.76968384 C3.0710742 105.98791929 3.0710742 105.98791929 1.42904758 104.65633488 C-0.39035774 102.54755661 -0.3708377 101.48591709 -0.36076355 98.72895813 C-0.36488754 97.85817627 -0.36901154 96.98739441 -0.3732605 96.09022522 C-0.36247467 95.13788498 -0.35168884 94.18554474 -0.34057617 93.2043457 C-0.34101425 92.19928986 -0.34145233 91.19423401 -0.34190369 90.15872192 C-0.33981075 86.83087861 -0.3164555 83.50353674 -0.29296875 80.17578125 C-0.2873746 77.87078629 -0.28310365 75.56578776 -0.28010559 73.26078796 C-0.26864261 67.18946512 -0.23916274 61.11835704 -0.20599365 55.04711914 C-0.16993339 47.76508777 -0.15613856 40.48298466 -0.13863373 33.20088959 C-0.10952648 22.13377695 -0.05204889 11.0671357 0 0 Z " fill="#FA0260" transform="translate(390,335)"/>
<path d="M0 0 C72.27 0 144.54 0 219 0 C215.67908278 3.32091722 212.87048976 5.52486272 209 8.0625 C193.34411467 18.71214293 180.79731606 31.9448132 176.546875 51.03515625 C175.62068662 56.9700739 176 63.02231874 176 69 C117.92 69 59.84 69 0 69 C0 46.23 0 23.46 0 0 Z " fill="#FB0161" transform="translate(143,609)"/>
<path fill-rule="evenodd" d="M0 0 C10.8075 -0.061875 21.615 -0.12375 32.75 -0.1875 C36.13862305 -0.21481201 39.52724609 -0.24212402 43.01855469 -0.27026367 C45.73632451 -0.27903424 48.45409831 -0.28667682 51.171875 -0.29296875 C52.20577362 -0.30472893 52.20577362 -0.30472893 53.26055908 -0.31672668 C66.67079626 -0.46138494 80.65999654 0.84318042 91.2578125 9.9375 C99.5498574 18.50492647 101.65451495 27.69287255 101.5390625 39.29223633 C101.15482992 48.42448416 98.46078408 55.7441556 92.1875 62.5 C87.8709556 66.42413127 83.02507279 70 77 70 C82.24398601 76.73321467 87.72943049 83.21856801 93.3425293 89.64477539 C94.89877749 91.42662163 96.44998934 93.21272739 98 95 C98.49709473 95.56654297 98.99418945 96.13308594 99.50634766 96.71679688 C103 100.77203878 103 100.77203878 103 103 C96.18520888 103.50931072 89.38916224 103.7969413 82.5546875 103.6640625 C81.42788574 103.64553223 80.30108398 103.62700195 79.14013672 103.60791016 C75.22167574 102.84932146 73.48163895 101.36097409 70.6875 98.5625 C69.36290947 96.38801125 68.17253285 94.25095912 67 92 C63.41766074 85.50244823 59.55743319 78.80734697 53 75 C43.07671839 72.62205199 33.16506092 73.59519669 23 74 C23 83.57 23 93.14 23 103 C15.41 103 7.82 103 0 103 C0 69.01 0 35.02 0 0 Z M 23 20 C 29.156836 19.931023 35.312324 19.87132 41.469238 19.835205 C 43.562384 19.820145 45.655497 19.799693 47.748535 19.773682 C 50.762123 19.737175 53.775293 19.720245 56.789062 19.707031 C 57.720541 19.691547 58.65202 19.676064 59.611725 19.66011 C 66.38392 19.658368 70.460275 21.012389 75.875 25.25 C 79.255226 29.58194 78.56109 35.112084 78.566406 40.34375 C 77.892755 44.692282 76.917829 46.707616 74 50 C 68.154143 54.056601 62.762021 54.550168 55.8125 54.390625 C 54.86939 54.384965 53.926279 54.379305 52.95459 54.373474 C 49.96919 54.351246 46.985031 54.301076 44 54.25 C 41.964861 54.229917 39.929703 54.21167 37.894531 54.195312 C 32.928836 54.154842 27.965791 54.076528 23 54 C 23 42.78 23 31.56 23 20 Z" fill="#0A0A0A" transform="translate(554,481)"/>
<path d="M0 0 C7.59 0 15.18 0 23 0 C23.639375 2.165625 24.27875 4.33125 24.9375 6.5625 C25.16808105 7.34326904 25.39866211 8.12403809 25.63623047 8.9284668 C26.97941841 13.4912831 28.30667513 18.05837354 29.61772156 22.63053894 C30.40047839 25.35992081 31.18602239 28.08849846 31.97146606 30.81710815 C32.36109733 32.17374599 32.74937399 33.53077372 33.13619995 34.88821411 C35.23641376 42.25615685 37.46602104 49.52532414 40.15405273 56.70361328 C41.16056439 59.43586396 41.99674674 62.1878545 42.75 65 C42.99234375 65.886875 43.2346875 66.77375 43.484375 67.6875 C44 70 44 70 44 73 C44.66 73 45.32 73 46 73 C46.07404053 72.40388916 46.14808105 71.80777832 46.22436523 71.19360352 C47.61442923 61.98838591 50.82620998 53.61448473 54.0625 44.9375 C54.94296968 42.54623454 55.82004033 40.15374205 56.69670105 37.76107788 C57.28351661 36.15952295 57.87125233 34.55830486 58.45991516 32.95742798 C62.47250009 22.02852209 66.22250737 11.01235139 70 0 C77.59 0 85.18 0 93 0 C93.598125 2.000625 94.19625 4.00125 94.8125 6.0625 C96.46996218 11.48656238 96.46996218 11.48656238 98.5625 16.75 C102.7926161 26.31374075 105.48171434 36.68362607 108.66601562 46.64624023 C109.31722424 48.68270789 109.97033664 50.71854666 110.625 52.75390625 C110.83275558 53.39985748 111.04051117 54.04580872 111.25456238 54.71133423 C112.35428997 58.10190168 113.51461817 61.45314192 114.80078125 64.77734375 C115.92597893 67.80108345 116.29859838 69.81495062 116 73 C116.66 73 117.32 73 118 73 C118.226875 71.824375 118.45375 70.64875 118.6875 69.4375 C119.7349669 64.74195874 121.20454691 60.2534904 122.76049805 55.70458984 C124.9699469 49.19675867 126.98843693 42.63382551 129 36.0625 C129.34522705 34.93682617 129.6904541 33.81115234 130.04614258 32.65136719 C131.29983996 28.56069941 132.55216479 24.46962172 133.79931641 20.37695312 C134.46703012 18.18775751 135.13918482 15.99997781 135.8125 13.8125 C136.16957031 12.64332031 136.52664063 11.47414063 136.89453125 10.26953125 C138.07534178 6.77716936 139.54778323 3.3885058 141 0 C148.26 0 155.52 0 163 0 C162.20800367 4.75197796 161.22413423 8.677455 159.69921875 13.1953125 C159.46686523 13.88803757 159.23451172 14.58076263 158.99511719 15.29447937 C158.49268734 16.79047335 157.98817186 18.28576819 157.48178101 19.78042603 C156.67417886 22.1643216 155.87216978 24.55003596 155.0715332 26.9362793 C153.94964562 30.27809455 152.82551726 33.61914142 151.69921875 36.95947266 C149.01935589 44.90737166 146.34795262 52.85808209 143.6875 60.8125 C143.43692841 61.56126404 143.18635681 62.31002808 142.92819214 63.08148193 C138.72533756 75.65672899 134.77880097 88.28948764 131 101 C122.42 101 113.84 101 105 101 C102.76171875 94.28515625 102.76171875 94.28515625 101.98641968 91.95857239 C100.67942568 88.03658735 99.37119195 84.11502149 98.06103516 80.1940918 C95.5547159 72.68967666 93.0539266 65.18383653 90.5973053 57.66297913 C89.5986184 54.60640389 88.59472471 51.55155017 87.59048462 48.49679565 C87.11364968 47.04107117 86.63950488 45.58446275 86.1680603 44.12698364 C85.51194177 42.09932709 84.84684253 40.07482825 84.1796875 38.05078125 C83.61870361 36.32855347 83.61870361 36.32855347 83.04638672 34.5715332 C82.27339933 31.86173738 82.27339933 31.86173738 80 31 C79.88390381 31.67426025 79.76780762 32.34852051 79.64819336 33.04321289 C78.87884695 36.55264956 77.7790977 39.91064505 76.62890625 43.30859375 C76.39076706 44.02018143 76.15262787 44.7317691 75.90727234 45.46492004 C75.12846409 47.79005704 74.34548776 50.1137675 73.5625 52.4375 C73.02345518 54.04449313 72.48472121 55.65159055 71.94628906 57.25878906 C70.84390693 60.54845102 69.74009587 63.83762825 68.63525391 67.12646484 C66.38218783 73.83666527 64.1458758 80.55243696 61.90988159 87.26834106 C60.86255364 90.41352167 59.81404197 93.55830724 58.765625 96.703125 C58.18296875 98.45109375 57.6003125 100.1990625 57 102 C48.75 102 40.5 102 32 102 C29.76464619 96.0390565 27.63500142 90.09698462 25.625 84.0625 C25.31973389 83.14734619 25.01446777 82.23219238 24.69995117 81.28930664 C22.56431329 74.83307887 20.58387403 68.34479501 18.69921875 61.81152344 C17.30461334 56.98774849 15.77719738 52.22948502 14.16015625 47.4765625 C12.25665287 41.77246145 10.46153048 36.03378813 8.65039062 30.29980469 C7.29382609 26.01769008 5.92683563 21.74227423 4.47265625 17.4921875 C4.24312256 16.82034424 4.01358887 16.14850098 3.77709961 15.45629883 C3.17213444 13.69938575 2.55906306 11.94526961 1.9453125 10.19140625 C1 7 1 7 0 0 Z " fill="#F70763" transform="translate(938,482)"/>
<path d="M0 0 C30.69 0 61.38 0 93 0 C93 5.94 93 11.88 93 18 C69.57 18 46.14 18 22 18 C22 25.59 22 33.18 22 41 C42.13 41 62.26 41 83 41 C83 47.27 83 53.54 83 60 C63.2 60 43.4 60 23 60 C23 67.26 23 74.52 23 82 C46.1 82 69.2 82 93 82 C93 88.6 93 95.2 93 102 C62.31 102 31.62 102 0 102 C0 68.34 0 34.68 0 0 Z " fill="#080808" transform="translate(673,482)"/>
<path d="M0 0 C1.46543947 0.0056076 2.93088464 0.00987218 4.39633179 0.01286316 C8.22027602 0.02422054 12.04386874 0.05360697 15.86767578 0.0869751 C19.78282926 0.11787454 23.69804052 0.1314106 27.61328125 0.14648438 C35.2710108 0.17848742 42.92837976 0.23117848 50.5859375 0.29296875 C50.5859375 6.89296875 50.5859375 13.49296875 50.5859375 20.29296875 C48.64307861 20.29707764 46.70021973 20.30118652 44.69848633 20.30541992 C38.27214113 20.32483228 31.84626494 20.36716198 25.42015553 20.42505932 C21.52473598 20.45931967 17.62970819 20.48443769 13.73413086 20.48852539 C9.97308548 20.49281059 6.21292367 20.52128969 2.45215416 20.56640053 C1.01892943 20.57936879 -0.41440109 20.58368552 -1.84767723 20.57912254 C-3.85840689 20.57421302 -5.86913218 20.6031887 -7.87963867 20.63354492 C-9.02325363 20.64020676 -10.16686859 20.64686859 -11.34513855 20.6537323 C-15.37481765 21.49308766 -16.88756415 23.10631164 -19.4140625 26.29296875 C-19.95686005 30.09255162 -19.73126711 32.47196859 -18.3515625 36.04296875 C-15.4154807 39.45261213 -11.74349004 40.99770075 -7.3324585 41.55682373 C-5.02931691 41.65109155 -2.7423808 41.65575285 -0.4375 41.62890625 C1.30338908 41.64142765 3.04427451 41.65446517 4.78515625 41.66796875 C7.49020721 41.67187567 10.19488744 41.66805618 12.89990234 41.65332031 C26.79318515 41.60752667 39.41122803 42.18882032 50 52.46484375 C56.48087405 59.93540792 57.10965164 67.74525712 56.5859375 77.29296875 C55.42758443 85.72401958 51.8469118 91.80011634 45.3046875 97.01171875 C38.3838383 102.17089725 31.60111736 103.55006445 23.06835938 103.52001953 C22.36493408 103.52031158 21.66150879 103.52060364 20.93676758 103.52090454 C18.64260945 103.51952607 16.34878794 103.50403602 14.0546875 103.48828125 C12.45186541 103.48454583 10.84904102 103.48170136 9.24621582 103.47970581 C5.05079722 103.472111 0.85551959 103.45249872 -3.33984375 103.43029785 C-7.63018894 103.40974944 -11.92055716 103.40068495 -16.2109375 103.390625 C-24.61205071 103.36924843 -33.01302276 103.33410069 -41.4140625 103.29296875 C-41.4140625 97.02296875 -41.4140625 90.75296875 -41.4140625 84.29296875 C-38.41675049 84.27109497 -38.41675049 84.27109497 -35.35888672 84.2487793 C-28.74503328 84.19836486 -22.13141358 84.13175784 -15.51778984 84.05725384 C-11.50927631 84.0125916 -7.50086345 83.97332657 -3.4921875 83.9465332 C0.37891124 83.9204585 4.24962177 83.88002725 8.12047958 83.82978249 C9.59474725 83.81314181 11.06908202 83.80161011 12.54343033 83.79535484 C14.61416235 83.78568275 16.6839075 83.75758935 18.75439453 83.7253418 C20.51978073 83.70868721 20.51978073 83.70868721 22.3208313 83.69169617 C26.55703308 83.17438074 30.2577685 81.98336566 32.9609375 78.54296875 C34.20641465 74.05925102 34.29745385 70.62706191 32.0859375 66.48046875 C26.86367052 61.91098514 19.76835464 62.01047355 13.1328125 62.01953125 C11.52733687 61.9992347 9.92186818 61.97838378 8.31640625 61.95703125 C5.83083188 61.93454621 3.34553437 61.91799146 0.85986328 61.91210938 C-12.17181692 61.86032443 -24.04336546 61.13418841 -34.50390625 52.36328125 C-40.72063966 45.62530843 -42.78169899 37.48581142 -42.6953125 28.56640625 C-42.01878283 20.69235255 -39.12926157 13.74838604 -33.4140625 8.29296875 C-23.31307738 0.40651728 -12.35521953 -0.14024586 0 0 Z " fill="#070706" transform="translate(823.4140625,480.70703125)"/>
<path fill-rule="evenodd" d="M0 0 C1.00023193 0.00523682 2.00046387 0.01047363 3.03100586 0.01586914 C4.1105957 0.0190918 5.19018555 0.02231445 6.30249023 0.02563477 C8.00695313 0.03820312 8.00695313 0.03820312 9.74584961 0.05102539 C11.45611328 0.05779297 11.45611328 0.05779297 13.20092773 0.06469727 C16.02845312 0.07652792 18.85587601 0.09301129 21.68334961 0.11352539 C38.62426758 37.38354492 38.62426758 37.38354492 39.56359863 39.45011902 C40.18244913 40.8115596 40.80134561 42.17297928 41.42028809 43.53437805 C42.95518208 46.91061295 44.48927544 50.28720719 46.02172852 53.66455078 C48.96081713 60.13971219 51.90824295 66.61075162 54.88082886 73.07061768 C56.29099113 76.136271 57.69705091 79.20379766 59.1027832 82.27148438 C59.77699585 83.7397158 60.45323911 85.20701661 61.1315918 86.67333984 C62.06929128 88.70059015 63.0000813 90.73087999 63.92944336 92.76196289 C64.46239014 93.91873535 64.99533691 95.07550781 65.54443359 96.26733398 C66.68334961 99.11352539 66.68334961 99.11352539 66.68334961 102.11352539 C59.09334961 102.11352539 51.50334961 102.11352539 43.68334961 102.11352539 C42.56959961 99.74165039 41.45584961 97.36977539 40.30834961 94.92602539 C39.9611084 94.18843994 39.61386719 93.45085449 39.25610352 92.69091797 C38.97686035 92.09432373 38.69761719 91.49772949 38.40991211 90.88305664 C37.98572998 89.97970581 37.98572998 89.97970581 37.55297852 89.05810547 C36.5304501 86.77162629 35.61357401 84.43908639 34.68334961 82.11352539 C17.85334961 82.11352539 1.02334961 82.11352539 -16.31665039 82.11352539 C-18.95665039 88.38352539 -21.59665039 94.65352539 -24.31665039 101.11352539 C-25.31665039 102.11352539 -25.31665039 102.11352539 -27.54150391 102.22705078 C-28.97901001 102.21919556 -28.97901001 102.21919556 -30.44555664 102.21118164 C-31.99726562 102.20634766 -31.99726562 102.20634766 -33.58032227 102.20141602 C-34.66893555 102.19303711 -35.75754883 102.1846582 -36.87915039 102.17602539 C-38.51787109 102.16925781 -38.51787109 102.16925781 -40.18969727 102.16235352 C-42.89873534 102.15052366 -45.60766638 102.13404082 -48.31665039 102.11352539 C-47.67774221 98.16937441 -46.46507391 94.85569404 -44.84008789 91.21118164 C-44.33767578 90.08059326 -43.83526367 88.95000488 -43.31762695 87.78515625 C-42.78105469 86.59414307 -42.24448242 85.40312988 -41.69165039 84.17602539 C-41.13916074 82.94111687 -40.58675217 81.70617208 -40.03442383 80.47119141 C-36.8760265 73.43494126 -33.59845959 66.49246446 -30.06445312 59.63696289 C-28.15151982 55.78063471 -26.40114318 51.87491275 -24.67211914 47.93383789 C-20.69169566 38.92177493 -16.61824181 29.95451625 -12.50488281 21.00244141 C-11.35312429 18.49435048 -10.20498733 15.98461976 -9.05688477 13.47485352 C-8.32207548 11.87384256 -7.58705793 10.27292716 -6.85180664 8.67211914 C-6.33941185 7.55056679 -6.33941185 7.55056679 -5.81666565 6.40635681 C-2.93158105 0.14365952 -2.93158105 0.14365952 0 0 Z M 8.68335 22.113525 C 11.123727 25.124762 12.703897 28.104726 14.241943 31.656494 C 14.710518 32.730928 15.179092 33.805361 15.661865 34.912354 C 16.14333 36.030615 16.624795 37.148877 17.12085 38.301025 C 18.077788 40.502889 19.034818 42.704712 19.991943 44.906494 C 20.446821 45.961431 20.901699 47.016367 21.370361 48.103271 C 22.863731 51.527082 24.418487 54.920151 26.003906 58.302246 C 26.68335 60.113525 26.68335 60.113525 26.68335 63.113525 C 15.13335 63.113525 3.58335 63.113525 -8.31665 63.113525 C -6.487142 57.624999 -4.736381 52.511028 -2.468994 47.250244 C -2.21163 46.650976 -1.954265 46.051708 -1.689102 45.43428 C -1.152192 44.185919 -0.613566 42.938294 -0.073242 41.691406 C 0.75114 39.788816 1.570217 37.884011 2.388428 35.97876 C 6.72627 25.914323 6.72627 25.914323 8.68335 22.113525 Z" fill="#F70862" transform="translate(1142.316650390625,481.886474609375)"/>
<path d="M0 0 C7.26 0 14.52 0 22 0 C22.33 15.51 22.66 31.02 23 47 C26.650625 43.37 30.30125 39.74 34.0625 36 C35.19953369 34.87207031 36.33656738 33.74414062 37.50805664 32.58203125 C46.49292879 23.62981369 46.49292879 23.62981369 54.59594727 13.88671875 C64.33653569 0.99796518 64.33653569 0.99796518 72.37695312 -0.72265625 C80.28304548 -1.38745806 88.12946778 -0.89830482 96 0 C91.89894581 4.90004192 87.62569874 9.4689786 83.0625 13.9375 C78.8143901 18.13712305 74.70977994 22.35807571 70.85546875 26.92578125 C67.75359137 30.39335365 64.41273048 33.62723219 61.08544922 36.87744141 C58.76187653 39.16197507 56.81546528 41.27680208 55 44 C54.34 44 53.68 44 53 44 C60.02860526 53.58941492 67.46334232 62.80769212 75 72 C97 98.83295195 97 98.83295195 97 101 C72.90321534 103.24718939 72.90321534 103.24718939 67.2109375 98.59765625 C64.77978598 95.95761697 62.92419064 92.98896427 61.13769531 89.88623047 C59.2007554 86.67490047 56.79528254 83.84532347 54.4375 80.9375 C53.53212337 79.77608675 52.62846468 78.61333217 51.7265625 77.44921875 C48.21580303 72.96494065 44.51272765 68.64622128 40.80078125 64.328125 C39 62 39 62 39 60 C32.85162791 63.07418605 27.78354425 68.32468362 24 74 C23.34 74 22.68 74 22 74 C22 83.24 22 92.48 22 102 C14.74 102 7.48 102 0 102 C0 68.34 0 34.68 0 0 Z " fill="#F60963" transform="translate(1313,482)"/>
<path d="M0 0 C25.08 0 50.16 0 76 0 C76 17.82 76 35.64 76 54 C50.92 54 25.84 54 0 54 C0 36.18 0 18.36 0 0 Z " fill="#FB0261" transform="translate(287,528)"/>
<path d="M0 0 C7.26 0 14.52 0 22 0 C22 27.39 22 54.78 22 83 C40.48 83 58.96 83 78 83 C78 89.27 78 95.54 78 102 C67.97771835 102.02255161 57.95545343 102.04091543 47.9331522 102.05181217 C43.27988814 102.05704085 38.62664226 102.06413823 33.97338867 102.07543945 C29.48655454 102.08626886 24.99973796 102.09227695 20.51289177 102.09487724 C18.79719707 102.0967314 17.08150338 102.10035182 15.36581612 102.10573006 C12.97115087 102.11294121 10.57655904 102.11399091 8.18188477 102.11352539 C7.10726738 102.1189183 7.10726738 102.1189183 6.01094055 102.12442017 C1.11405216 102.11405216 1.11405216 102.11405216 0 101 C-0.09534958 97.86440114 -0.12550879 94.75086387 -0.11352539 91.61499023 C-0.11367142 90.62973358 -0.11381744 89.64447693 -0.1139679 88.62936401 C-0.11326832 85.35575193 -0.10547385 82.08219596 -0.09765625 78.80859375 C-0.09579223 76.54557832 -0.09436825 74.28256249 -0.09336853 72.01954651 C-0.0895421 66.05021052 -0.07971075 60.08089868 -0.06866455 54.11157227 C-0.05845312 48.02555671 -0.05387149 41.93953727 -0.04882812 35.85351562 C-0.03808859 23.9023314 -0.02049078 11.95117149 0 0 Z " fill="#FA0461" transform="translate(1221,482)"/>
<path d="M0 0 C-0.81791016 0.51046875 -0.81791016 0.51046875 -1.65234375 1.03125 C-19.50422352 12.50527871 -31.91497629 30.26874951 -37 51 C-37.94416894 55.64048992 -38.79294081 60.29470272 -39.62939453 64.95556641 C-42.99157008 83.50290372 -48.03540011 94.47441527 -61.625 107.5 C-75.21563597 120.85852996 -91.65241122 138.8706263 -92.23046875 159.15625 C-92.22654113 160.60423218 -92.21210446 162.05222155 -92.1875 163.5 C-92.1865332 164.58087891 -92.1865332 164.58087891 -92.18554688 165.68359375 C-92.14869545 170.21222442 -91.73491751 174.53170151 -91 179 C-100.09149008 173.67815215 -105.45741561 166.09922579 -108.58984375 156.12109375 C-110.75652555 144.91625357 -108.9263007 134.04387993 -102.8125 124.53515625 C-94.86830036 113.42354943 -84.65957886 105.41070238 -73.125 98.3125 C-61.85564378 91.30191212 -55.56166592 81.68933608 -52 69 C-51.07779941 64.89325453 -50.29082487 60.76096675 -49.49536133 56.62817383 C-45.36919074 35.23655195 -38.31073322 18.70108415 -20.3359375 5.3984375 C-16.14875651 2.89173048 -11.64835971 1.4173687 -7 0 C-3.86650268 -1.04449911 -3.01031744 -0.93423645 0 0 Z " fill="#F50B62" transform="translate(443,525)"/>
<path d="M0 0 C7.26 0 14.52 0 22 0 C22 33.99 22 67.98 22 103 C14.74 103 7.48 103 0 103 C0 69.01 0 35.02 0 0 Z " fill="#090909" transform="translate(897,481)"/>
<path d="M0 0 C5.65423761 0.62824862 9.61131041 3.58657476 14 7 C14 5.02 14 3.04 14 1 C15.66666667 2.66666667 17.33333333 4.33333333 19 6 C19.598125 6.556875 20.19625 7.11375 20.8125 7.6875 C22 9 22 9 22 11 C25.99996286 9.66667905 26.83782337 7.5042173 29 4 C29.495 5.485 29.495 5.485 30 7 C28.05047637 10.0742488 26.76059565 11.71698767 23.3125 13 C22.549375 13.33 21.78625 13.66 21 14 C20.10613836 16.54775306 20.10613836 16.54775306 20 19 C19.01 18.67 18.02 18.34 17 18 C16.62021953 16.67914585 16.29246251 15.34289038 16 14 C12.25580915 8.02266675 7.19147783 5.09573892 1 2 C0.01 4.97 -0.98 7.94 -2 11 C-2.66 9.68 -3.32 8.36 -4 7 C-3.34 6.67 -2.68 6.34 -2 6 C-1.62690101 4.34178227 -1.29299023 2.67422986 -1 1 C-0.67 0.67 -0.34 0.34 0 0 Z " fill="#FDE1F3" transform="translate(435,609)"/>
<path d="M0 0 C4.45913734 1.63559092 8.51084839 3.77864791 12.625 6.125 C13.29273438 6.47820313 13.96046875 6.83140625 14.6484375 7.1953125 C18.41737243 9.36621902 20.32073346 10.98813611 21.7890625 15.15234375 C21.96904785 15.82257568 22.1490332 16.49280762 22.33447266 17.18334961 C23.54970716 20.50050292 25.94815412 21.5327664 29 23 C30.60294922 23.07734375 30.60294922 23.07734375 32.23828125 23.15625 C37.49683038 24.33573766 39.86306279 27.19302988 43.4375 31.0625 C44.39172852 32.05733398 44.39172852 32.05733398 45.36523438 33.07226562 C46.92467612 34.70205813 48.46834939 36.34413568 50 38 C46.78485841 42.17209844 44.19054694 44.85995422 39.4375 47.3125 C38.04337891 48.04919922 38.04337891 48.04919922 36.62109375 48.80078125 C29.3841169 52.1118869 19.87327275 52.48770381 12.26171875 50.1640625 C4.83591264 46.34214502 -1.23449015 39.5652562 -4.33984375 31.80859375 C-6.76918867 21.47309672 -5.83291365 10.47173439 -1 1 C-0.67 0.67 -0.34 0.34 0 0 Z " fill="#F70864" transform="translate(367,670)"/>
<path d="M0 0 C7.83013214 6.04994825 13.71191279 16.80801811 15.66015625 26.515625 C15.73781709 27.95660931 15.76811992 29.40071129 15.7578125 30.84375 C15.75458984 31.64296875 15.75136719 32.4421875 15.74804688 33.265625 C15.73547852 34.503125 15.73547852 34.503125 15.72265625 35.765625 C15.71814453 36.60609375 15.71363281 37.4465625 15.70898438 38.3125 C15.69723586 40.38023901 15.67930147 42.44794124 15.66015625 44.515625 C12.02722286 43.6804791 8.99854038 42.31816303 5.66015625 40.640625 C4.11328125 39.87105469 4.11328125 39.87105469 2.53515625 39.0859375 C-3.85673742 35.59471297 -3.85673742 35.59471297 -5.17578125 32.6484375 C-5.35367188 31.98585938 -5.5315625 31.32328125 -5.71484375 30.640625 C-6.94234716 27.12608891 -8.37550557 24.75372982 -11.42260742 22.4375 C-13.8113015 21.28893145 -15.88175264 21.14660116 -18.515625 20.890625 C-25.27311092 19.75524208 -28.56677593 16.35252465 -33.02734375 11.390625 C-33.74083984 10.63652344 -34.45433594 9.88242187 -35.18945312 9.10546875 C-36.9287486 7.26111516 -38.64338342 5.39930081 -40.33984375 3.515625 C-37.84283429 0.85697876 -35.63252262 -1.09627671 -32.33984375 -2.671875 C-31.67984375 -2.99542969 -31.01984375 -3.31898438 -30.33984375 -3.65234375 C-19.99647994 -7.95534471 -9.18289414 -5.82554219 0 0 Z " fill="#F60A64" transform="translate(486.33984375,532.484375)"/>
<path d="M0 0 C0.66 0 1.32 0 2 0 C2 26.73 2 53.46 2 81 C20.15 81 38.3 81 57 81 C58.64176774 84.28353549 58.18454039 87.89519638 58.1875 91.5 C58.19974609 92.28503906 58.21199219 93.07007813 58.22460938 93.87890625 C58.22986254 95.92063726 58.1222018 97.96192251 58 100 C57.34 100.66 56.68 101.32 56 102 C56 95.73 56 89.46 56 83 C37.52 83 19.04 83 0 83 C0 55.61 0 28.22 0 0 Z " fill="#FEC9E7" transform="translate(1243,482)"/>
<path d="M0 0 C3.98712321 1.83246572 7.58084504 4.23855775 11.25 6.625 C11.8996875 7.04523437 12.549375 7.46546875 13.21875 7.8984375 C14.81368881 8.93045673 16.40700669 9.96498028 18 11 C17.79503906 11.60328125 17.59007812 12.2065625 17.37890625 12.828125 C17.10949219 13.62734375 16.84007812 14.4265625 16.5625 15.25 C16.29566406 16.03890625 16.02882813 16.8278125 15.75390625 17.640625 C15.08045292 19.74821988 14.50849405 21.84753973 14 24 C9.72813475 22.47146065 6.00673137 20.28490519 2.1875 17.875 C1.2912793 17.31619141 1.2912793 17.31619141 0.37695312 16.74609375 C-1.08426251 15.8342952 -2.54244585 14.91764024 -4 14 C-3.00956295 9.16371695 -2.04301154 4.52381127 0 0 Z " fill="#F20F62" transform="translate(418,575)"/>
<path d="M0 0 C4.55202677 1.57251834 5.75054642 3.23609768 8.4375 7.1875 C9.62431726 10.74795177 9.53439832 13.62558337 9.5 17.375 C9.49097656 18.64730469 9.48195313 19.91960938 9.47265625 21.23046875 C9.46105469 22.20628906 9.44945312 23.18210937 9.4375 24.1875 C5.7405322 23.6243857 4.23148304 22.23119202 1.75 19.5 C-2.26960012 15.29872303 -6.61667759 12.20994703 -11.5625 9.1875 C-9.15030271 3.89878575 -6.06835474 0.31938709 0 0 Z " fill="#F50C62" transform="translate(466.5625,559.8125)"/>
<path d="M0 0 C4.05214179 1.74522938 7.30603961 4.4228157 10.75 7.125 C11.35199219 7.59292969 11.95398438 8.06085937 12.57421875 8.54296875 C14.05186616 9.69225007 15.52626005 10.84571235 17 12 C16.21258341 16.7990969 14.50483074 19.87914943 12 24 C5.87584657 20.15717678 -0.16865561 16.27631922 -6 12 C-4.68139111 7.38486888 -2.78644563 3.90102388 0 0 Z " fill="#F50D63" transform="translate(427,556)"/>
<path d="M0 0 C2.89852365 1.31307372 4.98277217 2.72684638 7.234375 4.96875 C8.09482422 5.82533203 8.09482422 5.82533203 8.97265625 6.69921875 C9.55917969 7.29347656 10.14570313 7.88773438 10.75 8.5 C11.35199219 9.09425781 11.95398438 9.68851563 12.57421875 10.30078125 C13.14269531 10.87183594 13.71117187 11.44289063 14.296875 12.03125 C14.81604492 12.55267578 15.33521484 13.07410156 15.87011719 13.61132812 C17 15 17 15 17 17 C15.34997172 18.35386936 13.6825613 19.68678142 12 21 C11.67 21.66 11.34 22.32 11 23 C7.21119031 22.42437585 5.32700195 20.7699377 2.5625 18.1875 C-0.54314766 15.33296907 -3.66176951 12.58443651 -7 10 C-5.33248852 6.05860922 -2.77289351 3.2107188 0 0 Z " fill="#F11063" transform="translate(439,540)"/>
<path d="M0 0 C6.94453537 3.19898736 12.93912286 7.36248444 17 14 C16.77598426 17.25731002 15.83341809 18.20259962 13.6875 20.8125 C11 23 11 23 9.0859375 22.8515625 C6.5366964 21.81086108 4.95434078 20.43167228 2.9375 18.5625 C0.66243606 16.47083853 -1.41507709 14.72328194 -4 13 C-3.71682074 11.39431334 -3.42312209 9.79047953 -3.125 8.1875 C-2.96257812 7.29417969 -2.80015625 6.40085937 -2.6328125 5.48046875 C-2 3 -2 3 0 0 Z " fill="#F01265" transform="translate(436,610)"/>
<path d="M0 0 C3.39465355 1.45810622 5.52251713 3.33766728 8.0625 6 C10.33653856 8.37442798 12.24521929 10.16347952 15 12 C13.22054913 16.04420651 10.60470327 19.46078487 8 23 C4.43235179 22.42380903 2.74840503 21.13030516 0.25 18.5625 C-0.36359375 17.94503906 -0.9771875 17.32757812 -1.609375 16.69140625 C-3 15 -3 15 -3 13 C-3.99 12.67 -4.98 12.34 -6 12 C-5.54300722 6.97307937 -3.00758252 3.85103739 0 0 Z " fill="#F31062" transform="translate(471,616)"/>
<path d="M0 0 C4.00878292 0.61448497 7.16292392 1.86920876 10.75 3.75 C11.71421875 4.23984375 12.6784375 4.7296875 13.671875 5.234375 C16 7 16 7 16.91796875 9.40234375 C17.00792665 12.25101073 16.55551221 14.15122727 15.5625 16.8125 C15.13130859 17.99779297 15.13130859 17.99779297 14.69140625 19.20703125 C14.46324219 19.79871094 14.23507812 20.39039063 14 21 C8.42933186 19.38743817 2.9058846 17.11352751 -2 14 C-3.21065165 10.36804504 -2.62784815 8.93468371 -1.5625 5.3125 C-1.27503906 4.31863281 -0.98757813 3.32476563 -0.69140625 2.30078125 C-0.46324219 1.54152344 -0.23507812 0.78226563 0 0 Z " fill="#EF1365" transform="translate(412,598)"/>
<path d="M0 0 C1.89709988 0.93493439 3.79262578 1.87306296 5.6875 2.8125 C6.74324219 3.33457031 7.79898437 3.85664062 8.88671875 4.39453125 C11.66776696 5.8286728 14.33904567 7.35603378 17 9 C16.85795259 10.58367747 16.71119847 12.16693318 16.5625 13.75 C16.48128906 14.63171875 16.40007812 15.5134375 16.31640625 16.421875 C16.03761535 18.69350452 15.61209423 20.79851823 15 23 C10.88473708 22.35826346 7.69611565 20.13013842 4.25 17.9375 C3.64800781 17.56044922 3.04601562 17.18339844 2.42578125 16.79492188 C0.94750857 15.86806837 -0.52666089 14.93467611 -2 14 C-1.85866501 12.22880197 -1.71176792 10.45804713 -1.5625 8.6875 C-1.48128906 7.70136719 -1.40007812 6.71523438 -1.31640625 5.69921875 C-1 3 -1 3 0 0 Z " fill="#F60B61" transform="translate(484,577)"/>
<path d="M0 0 C4.15151338 1.44202476 7.29978445 3.5010438 10.8125 6.125 C11.78832031 6.84945312 12.76414062 7.57390625 13.76953125 8.3203125 C14.50558594 8.87460937 15.24164063 9.42890625 16 10 C15.29120484 14.85834353 14.03597876 18.57395923 12 23 C7.65962225 22.50485982 4.91387625 19.68886128 1.75 16.9375 C1.19570313 16.46505859 0.64140625 15.99261719 0.0703125 15.50585938 C-1.291749 14.34341033 -2.64659956 13.17252145 -4 12 C-2.66666667 8 -1.33333333 4 0 0 Z " fill="#F11063" transform="translate(479,598)"/>
<path d="M0 0 C5.24569384 3.36262426 10.11528387 7.13564679 15 11 C13.52069807 14.96479572 11.76352943 17.77588233 9 21 C5.04093183 19.56691865 1.71281819 17.66858051 -1.8125 15.375 C-2.78832031 14.74335937 -3.76414062 14.11171875 -4.76953125 13.4609375 C-5.50558594 12.97882812 -6.24164063 12.49671875 -7 12 C-6.38801624 8.56049636 -5.07941153 6.48435515 -2.9375 3.75 C-2.38964844 3.04359375 -1.84179688 2.3371875 -1.27734375 1.609375 C-0.85582031 1.07828125 -0.43429687 0.5471875 0 0 Z " fill="#F40D63" transform="translate(379,652)"/>
<path d="M0 0 C3.78671666 1.54950705 6.06455913 3.88289637 8.8125 6.875 C9.62332031 7.73867188 10.43414062 8.60234375 11.26953125 9.4921875 C13 12 13 12 12.96875 14.11328125 C11.82010276 16.35036438 10.59078157 17.67005359 8.6875 19.3125 C7.79611328 20.11107422 7.79611328 20.11107422 6.88671875 20.92578125 C5 22 5 22 3.0390625 22.03125 C-0.08619699 20.45065899 -1.39874609 18.08087199 -3.3125 15.1875 C-4.03050781 14.12917969 -4.74851562 13.07085938 -5.48828125 11.98046875 C-7 9 -7 9 -6.921875 6.78515625 C-5.30710476 3.65824947 -2.76862533 2.12064919 0 0 Z " fill="#F10D61" transform="translate(458,632)"/>
<path d="M0 0 C3.71045247 1.57780923 6.29906384 3.90703248 9.25 6.625 C10.14203125 7.44226563 11.0340625 8.25953125 11.953125 9.1015625 C12.96632813 10.04128906 12.96632813 10.04128906 14 11 C12.28564986 14.55225704 10.22257977 17.74021634 8 21 C3.64352355 19.55049595 0.68242711 17.32252888 -2.8125 14.375 C-3.78832031 13.55773437 -4.76414062 12.74046875 -5.76953125 11.8984375 C-6.50558594 11.27195312 -7.24164063 10.64546875 -8 10 C-6.07712966 5.70621187 -3.37521131 3.22846299 0 0 Z " fill="#F10B62" transform="translate(392,637)"/>
<path d="M0 0 C4.46244147 1.11561037 5.94144274 2.47161098 9.25 5.5625 C10.14203125 6.38878906 11.0340625 7.21507812 11.953125 8.06640625 C12.62859375 8.70449219 13.3040625 9.34257813 14 10 C9.85714286 17.57142857 9.85714286 17.57142857 7 20 C3.8731209 18.61867539 1.80079608 17.02096237 -0.5625 14.5625 C-1.14128906 13.96566406 -1.72007812 13.36882813 -2.31640625 12.75390625 C-2.87199219 12.17511719 -3.42757813 11.59632813 -4 11 C-4.99 10.01 -5.98 9.02 -7 8 C-4.69 5.36 -2.38 2.72 0 0 Z " fill="#EF1163" transform="translate(416,683)"/>
<path d="M0 0 C3.66060821 0.58536753 5.54535164 2.083239 8.25 4.5625 C8.95640625 5.20316406 9.6628125 5.84382812 10.390625 6.50390625 C10.92171875 6.99761719 11.4528125 7.49132812 12 8 C11.10276826 12.70525017 8.77694856 16.06424266 5 19 C1.31791301 19.12481651 -0.7657135 18.71668248 -3.9375 16.875 C-5.71940693 13.73045836 -5.46663018 11.55805512 -5 8 C-3.5672637 5.15442652 -1.87213658 2.57418779 0 0 Z " fill="#F11266" transform="translate(399,668)"/>
<path d="M0 0 C5.40489519 1.52012677 8.98492628 5.27385218 13 9 C12.39305845 12.15330554 11.3583335 14.18888867 9.4375 16.75 C8.98246094 17.36359375 8.52742188 17.9771875 8.05859375 18.609375 C7.70925781 19.06828125 7.35992187 19.5271875 7 20 C2.30834891 17.02480663 -1.84703191 13.68606635 -6 10 C-4.6302836 6.00499382 -2.74277578 3.19990508 0 0 Z " fill="#EF1362" transform="translate(428,667)"/>
<defs><linearGradient id="rwUnder" x1="0" y1="0" x2="1" y2="0"><stop offset="0" stop-color="#FA0361"/><stop offset="0.72" stop-color="#FA0361"/><stop offset="1" stop-color="#FA0361" stop-opacity="0"/></linearGradient></defs>
<rect x="500" y="632" width="940" height="9" rx="4" fill="url(#rwUnder)"/>


</svg>
